<svg xmlns="http://www.w3.org/2000/svg" viewBox="0 0 960 540" fill="none">
  <defs>
    <radialGradient id="glow-c" cx="50%" cy="50%" r="50%"><stop offset="0%" stop-color="#93c5fd" stop-opacity="0.5"/><stop offset="100%" stop-color="#93c5fd" stop-opacity="0"/></radialGradient>
  </defs>

  <!-- Lines — drawn first, behind nodes -->
  <g stroke="#94a3b8" stroke-opacity="0.38" stroke-width="0.8">
    <!-- Hub center (480,270) radiating -->
    <line x1="480" y1="270" x2="380" y2="200"/><line x1="480" y1="270" x2="540" y2="180"/>
    <line x1="480" y1="270" x2="420" y2="310"/><line x1="480" y1="270" x2="560" y2="300"/>
    <line x1="480" y1="270" x2="390" y2="350"/><line x1="480" y1="270" x2="530" y2="370"/>
    <line x1="480" y1="270" x2="340" y2="250"/><line x1="480" y1="270" x2="600" y2="240"/>
    <line x1="480" y1="270" x2="450" y2="160"/><line x1="480" y1="270" x2="520" y2="400"/>
    <line x1="480" y1="270" x2="620" y2="330"/><line x1="480" y1="270" x2="350" y2="150"/>
    <line x1="480" y1="270" x2="300" y2="310"/><line x1="480" y1="270" x2="650" y2="190"/>
    <line x1="480" y1="270" x2="430" y2="420"/><line x1="480" y1="270" x2="570" y2="130"/>
    <line x1="480" y1="270" x2="260" y2="200"/><line x1="480" y1="270" x2="700" y2="280"/>
    <line x1="480" y1="270" x2="320" y2="400"/><line x1="480" y1="270" x2="680" y2="380"/>
    <line x1="480" y1="270" x2="220" y2="300"/><line x1="480" y1="270" x2="750" y2="220"/>
    <line x1="480" y1="270" x2="200" y2="170"/><line x1="480" y1="270" x2="760" y2="340"/>
    <line x1="480" y1="270" x2="170" y2="250"/><line x1="480" y1="270" x2="800" y2="260"/>
    <line x1="480" y1="270" x2="460" y2="90"/><line x1="480" y1="270" x2="500" y2="460"/>
    <line x1="480" y1="270" x2="140" y2="350"/><line x1="480" y1="270" x2="830" y2="180"/>
    <line x1="480" y1="270" x2="280" y2="120"/><line x1="480" y1="270" x2="660" y2="440"/>

    <!-- Secondary hub at (340,180) -->
    <line x1="340" y1="180" x2="280" y2="120"/><line x1="340" y1="180" x2="300" y2="160"/>
    <line x1="340" y1="180" x2="350" y2="150"/><line x1="340" y1="180" x2="380" y2="200"/>
    <line x1="340" y1="180" x2="260" y2="200"/><line x1="340" y1="180" x2="310" y2="220"/>
    <line x1="340" y1="180" x2="370" y2="140"/><line x1="340" y1="180" x2="200" y2="170"/>
    <line x1="340" y1="180" x2="390" y2="120"/>

    <!-- Secondary hub at (650,330) -->
    <line x1="650" y1="330" x2="700" y2="280"/><line x1="650" y1="330" x2="680" y2="380"/>
    <line x1="650" y1="330" x2="620" y2="330"/><line x1="650" y1="330" x2="710" y2="350"/>
    <line x1="650" y1="330" x2="690" y2="420"/><line x1="650" y1="330" x2="750" y2="320"/>
    <line x1="650" y1="330" x2="660" y2="440"/><line x1="650" y1="330" x2="600" y2="390"/>

    <!-- Top-right cluster around (760,120) -->
    <line x1="760" y1="120" x2="800" y2="100"/><line x1="760" y1="120" x2="790" y2="150"/>
    <line x1="760" y1="120" x2="730" y2="90"/><line x1="760" y1="120" x2="820" y2="140"/>
    <line x1="760" y1="120" x2="750" y2="160"/><line x1="760" y1="120" x2="830" y2="180"/>
    <line x1="760" y1="120" x2="700" y2="130"/><line x1="760" y1="120" x2="850" y2="110"/>
    <line x1="800" y1="100" x2="820" y2="140"/><line x1="790" y1="150" x2="830" y2="180"/>
    <line x1="730" y1="90" x2="700" y2="130"/>

    <!-- Bottom-left cluster around (180,400) -->
    <line x1="180" y1="400" x2="140" y2="350"/><line x1="180" y1="400" x2="150" y2="430"/>
    <line x1="180" y1="400" x2="220" y2="420"/><line x1="180" y1="400" x2="130" y2="440"/>
    <line x1="180" y1="400" x2="210" y2="370"/><line x1="180" y1="400" x2="240" y2="450"/>
    <line x1="140" y1="350" x2="170" y2="370"/><line x1="150" y1="430" x2="130" y2="440"/>
    <line x1="220" y1="420" x2="240" y2="450"/>

    <!-- Left cluster around (120,220) -->
    <line x1="120" y1="220" x2="90" y2="200"/><line x1="120" y1="220" x2="100" y2="260"/>
    <line x1="120" y1="220" x2="150" y2="190"/><line x1="120" y1="220" x2="170" y2="250"/>
    <line x1="120" y1="220" x2="80" y2="240"/><line x1="90" y1="200" x2="150" y2="190"/>

    <!-- Cross-cluster connections -->
    <line x1="340" y1="180" x2="450" y2="160"/><line x1="650" y1="330" x2="560" y2="300"/>
    <line x1="760" y1="120" x2="650" y2="190"/><line x1="180" y1="400" x2="320" y2="400"/>
    <line x1="120" y1="220" x2="220" y2="300"/><line x1="120" y1="220" x2="260" y2="200"/>
    <line x1="180" y1="400" x2="300" y2="310"/><line x1="760" y1="120" x2="570" y2="130"/>
    <line x1="540" y1="180" x2="570" y2="130"/><line x1="390" y1="350" x2="320" y2="400"/>
    <line x1="530" y1="370" x2="600" y2="390"/><line x1="420" y1="310" x2="300" y2="310"/>
    <line x1="700" y1="280" x2="750" y2="220"/><line x1="600" y1="240" x2="650" y2="190"/>
    <line x1="310" y1="220" x2="220" y2="300"/><line x1="500" y1="460" x2="430" y2="420"/>
    <line x1="500" y1="460" x2="600" y2="390"/><line x1="460" y1="90" x2="390" y2="120"/>
    <line x1="460" y1="90" x2="570" y2="130"/><line x1="800" y1="260" x2="750" y2="220"/>
    <line x1="800" y1="260" x2="760" y2="340"/>
  </g>

  <!-- Central hub glow -->
  <circle cx="480" cy="270" r="40" fill="url(#glow-c)"/>

  <!-- Nodes — Code (muted blue/cyan) -->
  <circle cx="480" cy="270" r="14" fill="#93c5fd" opacity="0.9"/>
  <circle cx="380" cy="200" r="7" fill="#7dd3fc" opacity="0.8"/>
  <circle cx="540" cy="180" r="6" fill="#93c5fd" opacity="0.75"/>
  <circle cx="420" cy="310" r="5" fill="#7dd3fc" opacity="0.7"/>
  <circle cx="560" cy="300" r="8" fill="#93c5fd" opacity="0.8"/>
  <circle cx="390" cy="350" r="5" fill="#bae6fd" opacity="0.65"/>
  <circle cx="530" cy="370" r="6" fill="#7dd3fc" opacity="0.7"/>
  <circle cx="340" cy="250" r="4" fill="#93c5fd" opacity="0.6"/>
  <circle cx="600" cy="240" r="7" fill="#93c5fd" opacity="0.8"/>
  <circle cx="450" cy="160" r="5" fill="#bae6fd" opacity="0.7"/>
  <circle cx="520" cy="400" r="4" fill="#7dd3fc" opacity="0.6"/>
  <circle cx="620" cy="330" r="6" fill="#93c5fd" opacity="0.75"/>
  <circle cx="300" cy="160" r="3" fill="#bae6fd" opacity="0.55"/>
  <circle cx="300" cy="310" r="5" fill="#93c5fd" opacity="0.7"/>
  <circle cx="650" cy="190" r="6" fill="#7dd3fc" opacity="0.75"/>
  <circle cx="430" cy="420" r="4" fill="#93c5fd" opacity="0.6"/>
  <circle cx="570" cy="130" r="5" fill="#bae6fd" opacity="0.7"/>
  <circle cx="260" cy="200" r="4" fill="#93c5fd" opacity="0.6"/>
  <circle cx="700" cy="280" r="7" fill="#93c5fd" opacity="0.8"/>
  <circle cx="320" cy="400" r="4" fill="#7dd3fc" opacity="0.6"/>
  <circle cx="220" cy="300" r="5" fill="#93c5fd" opacity="0.65"/>
  <circle cx="750" cy="220" r="6" fill="#bae6fd" opacity="0.75"/>
  <circle cx="200" cy="170" r="4" fill="#7dd3fc" opacity="0.6"/>
  <circle cx="760" cy="340" r="5" fill="#93c5fd" opacity="0.7"/>
  <circle cx="170" cy="250" r="3" fill="#93c5fd" opacity="0.55"/>
  <circle cx="800" cy="260" r="5" fill="#bae6fd" opacity="0.7"/>
  <circle cx="460" cy="90" r="4" fill="#93c5fd" opacity="0.6"/>
  <circle cx="500" cy="460" r="5" fill="#7dd3fc" opacity="0.65"/>
  <circle cx="310" cy="220" r="4" fill="#93c5fd" opacity="0.6"/>
  <circle cx="370" cy="140" r="3" fill="#bae6fd" opacity="0.55"/>
  <circle cx="600" cy="390" r="5" fill="#93c5fd" opacity="0.7"/>

  <!-- Secondary hub nodes (code, larger) -->
  <circle cx="340" cy="180" r="10" fill="#93c5fd" opacity="0.85"/>
  <circle cx="650" cy="330" r="9" fill="#7dd3fc" opacity="0.85"/>
  <circle cx="120" cy="220" r="8" fill="#93c5fd" opacity="0.8"/>

  <!-- Cluster nodes — Code (small) -->
  <circle cx="280" cy="120" r="4" fill="#bae6fd" opacity="0.6"/>
  <circle cx="390" cy="120" r="3" fill="#93c5fd" opacity="0.55"/>
  <circle cx="350" cy="150" r="4" fill="#7dd3fc" opacity="0.6"/>
  <circle cx="90" cy="200" r="3" fill="#bae6fd" opacity="0.55"/>
  <circle cx="100" cy="260" r="3" fill="#93c5fd" opacity="0.5"/>
  <circle cx="150" cy="190" r="3" fill="#7dd3fc" opacity="0.55"/>
  <circle cx="80" cy="240" r="2.5" fill="#93c5fd" opacity="0.5"/>
  <circle cx="710" cy="350" r="4" fill="#bae6fd" opacity="0.6"/>
  <circle cx="750" cy="320" r="3" fill="#93c5fd" opacity="0.55"/>
  <circle cx="700" cy="130" r="3" fill="#7dd3fc" opacity="0.55"/>
  <circle cx="170" cy="370" r="3" fill="#93c5fd" opacity="0.5"/>
  <circle cx="210" cy="370" r="3" fill="#bae6fd" opacity="0.55"/>

  <!-- PRD nodes (coral/salmon) -->
  <circle cx="760" cy="120" r="9" fill="#f97066" opacity="0.85"/>
  <circle cx="800" cy="100" r="6" fill="#fca5a1" opacity="0.75"/>
  <circle cx="820" cy="140" r="5" fill="#f97066" opacity="0.7"/>
  <circle cx="790" cy="150" r="4" fill="#fca5a1" opacity="0.65"/>
  <circle cx="850" cy="110" r="4" fill="#f97066" opacity="0.6"/>
  <circle cx="730" cy="90" r="3" fill="#fca5a1" opacity="0.55"/>
  <circle cx="830" cy="180" r="5" fill="#f97066" opacity="0.7"/>
  <circle cx="140" cy="350" r="5" fill="#fca5a1" opacity="0.7"/>
  <circle cx="240" cy="450" r="4" fill="#f97066" opacity="0.6"/>

  <!-- DB Schema nodes (amber/orange) -->
  <circle cx="180" cy="400" r="8" fill="#fbbf24" opacity="0.85"/>
  <circle cx="150" cy="430" r="4" fill="#fcd34d" opacity="0.65"/>
  <circle cx="220" cy="420" r="5" fill="#fbbf24" opacity="0.7"/>
  <circle cx="130" cy="440" r="3" fill="#fcd34d" opacity="0.55"/>
  <circle cx="690" cy="420" r="5" fill="#fbbf24" opacity="0.7"/>
  <circle cx="660" cy="440" r="4" fill="#fcd34d" opacity="0.6"/>
  <circle cx="680" cy="380" r="5" fill="#fbbf24" opacity="0.7"/>
  <circle cx="500" cy="300" r="4" fill="#fcd34d" opacity="0.6"/>
  <circle cx="440" cy="240" r="3" fill="#fbbf24" opacity="0.55"/>
</svg>
